<svg height="100pt" viewBox="0 0 512 512" width="100pt" xmlns="http://www.w3.org/2000/svg"><path fill="#a44fa3" d="M316.8 334.254c-16.046-9.04-46.784-28.652-80.21-62.078-33.434-33.434-53.27-64.399-62.453-80.598l53.918-54.613L91.906 0 24.832 66.633C-.641 92.102-7.238 130.855 8.406 163.066 32.277 212.22 76.328 286.402 150.602 360.68c74.277 74.273 148.46 118.324 197.613 142.195a83.523 83.523 0 0036.566 8.406c21.93 0 43.606-8.57 59.867-24.832l66.766-66.996-138.906-139.137zm99.602 123.984c-13.445 13.43-33.836 16.938-50.746 8.727-46.398-22.535-116.472-64.164-186.824-134.516-70.352-70.351-111.98-140.426-134.516-186.824-8.218-16.914-4.703-37.316 8.696-50.715l38.715-38.46 80.132 80.612-45.933 46.528 5.543 12.445c.902 2.024 22.687 50.168 76.89 104.371 54.239 54.239 101.977 75.57 103.98 76.453l12.282 5.399 47.414-45.91 82.996 83.132zm-47.265-270.183l-93.961-93.957L369.136.137l28.231 28.23-44.773 44.77h99.281c33.086 0 60.004 26.863 60.004 59.886l.121 104.77-39.922.05-.121-104.796c0-11.031-9.008-19.984-20.082-19.984H350.598l46.77 46.765zm0 0"/></svg>