<svg width="50" height="16" xmlns="http://www.w3.org/2000/svg" xmlns:xlink="http://www.w3.org/1999/xlink"><defs><path id="path-1" d="M0 .122h49.063V15.98H0"/></defs><g id="controls" stroke="none" stroke-width="1" fill="none" fill-rule="evenodd"><g id="иконки" transform="translate(-852 -1736)"><g id="visa" transform="translate(852 1736)"><g id="Group-4"><mask id="mask-2" fill="#fff"><use xlink:href="#path-1"/></mask><path id="Fill-1" fill="#005CA3" mask="url(#mask-2)" d="M17.286 15.771L19.772.4h3.974L21.26 15.771h-3.974"/><path d="M35.668.776a9.813 9.813 0 00-3.565-.654c-3.925 0-6.689 2.093-6.705 5.085-.033 2.208 1.979 3.434 3.483 4.17 1.538.752 2.061 1.243 2.061 1.913-.016 1.03-1.243 1.505-2.388 1.505-1.586 0-2.436-.245-3.729-.818l-.523-.245-.556 3.45c.933.426 2.65.802 4.432.818 4.17 0 6.885-2.06 6.918-5.249.016-1.75-1.047-3.09-3.336-4.186-1.39-.703-2.24-1.178-2.24-1.897.016-.654.719-1.325 2.289-1.325a6.754 6.754 0 012.96.59l.36.162.54-3.32" id="Fill-3" fill="#005CA3" mask="url(#mask-2)"/></g><path d="M45.857.4h-3.075c-.948 0-1.668.278-2.077 1.275l-5.903 14.096h4.17l.834-2.306h5.102c.115.54.475 2.306.475 2.306h3.68L45.857.4zm-4.906 9.926c.327-.883 1.586-4.301 1.586-4.301-.016.033.327-.9.524-1.472l.277 1.325s.753 3.68.916 4.448h-3.303z" id="Fill-5" fill="#005CA3"/><path d="M13.966.4l-3.892 10.482-.425-2.126c-.72-2.453-2.976-5.118-5.495-6.443L7.72 15.755h4.203L18.17.4h-4.203" id="Fill-6" fill="#005CA3"/><path d="M6.46.4H.065L0 .71c4.988 1.276 8.292 4.35 9.649 8.046L8.259 1.69C8.03.711 7.327.432 6.46.4" id="Fill-7" fill="#FFAD30"/></g></g></g></svg>